<?xml version="1.0" encoding="UTF-8"?>
<svg xmlns="http://www.w3.org/2000/svg" viewBox="0 0 24 24">
  <g id="Layer_2" data-name="Layer 2">
    <path d="M9.43,22.22c-.18-.53-.31-1.93-.71-2.09-.27-.17-.74.1-1.3.47-.92.64-1.77,1.01-2.63.31-2.24-2.08-2.65-2.29-.86-4.99.48-1.23-1.99-.89-2.57-1.49-.88-.6-.66-1.69-.68-2.65-.11-1.27.42-2.11,1.66-2.32,3.13-.48.91-1.52.47-3.22-.2-1.04.74-1.66,1.4-2.37.82-.98,1.79-1.21,2.81-.46,2.79,2.11,1.62-.89,2.88-2.18.87-.69,2.18-.35,3.24-.39,1.35.14,1.48,1.38,1.74,2.55.43,2.02,2.25-.69,3.38-.43,1,.08,1.63,1.13,2.3,1.72,1.26,1.1.28,2.39-.44,3.48-.83,1.49,2.2.99,2.76,1.91.65.75.36,1.96.42,2.84.05,1.05-.65,1.74-1.67,1.89-.48.16-1.33.17-1.62.58-.2,1,1.46,2.08,1.15,3.15-.18.79-.84,1.23-1.4,1.84-.52.57-1.23,1.12-2.02.85-.57-.17-1.22-.69-1.76-.99-1.84-.96-.48,3.23-3,3.17-1.32-.04-2.93.39-3.5-1.06l-.05-.13ZM13.02,22.07c.51-.06.68-1.94.9-2.5.17-.55.71-.58,1.18-.81.21-.09.37-.14.55-.11.66.18,1.87,1.2,2.28,1.27.35.12.69-.19,1.18-.7.56-.55,1.03-.93.39-1.76-.29-.49-.78-1.21-.92-1.55-.16-.44.21-.94.34-1.36.41-.88,2.02-.66,2.77-1.09.5-.29.28-1.21.33-1.76,0-.68-.13-.94-.95-1.09-.55-.15-1.41-.29-1.75-.45-.36-.16-.46-.68-.66-1.13-.13-.32-.17-.52,0-.83.27-.69,1.59-1.88,1.02-2.58-.4-.43-1.23-1.4-1.61-1.3-1.12.22-2.05,1.77-3.12,1.1-.24-.1-.48-.17-.65-.27-.59-.21-.66-2.47-1.02-2.81-.29-.26-.63-.23-1.04-.23-.71,0-1.32-.03-1.49.23-.41.41-.34,2.38-1.01,2.79-.37.15-.98.49-1.4.45-.66-.18-1.85-1.18-2.27-1.25-.4-.2-1.06.58-1.49,1-.49.47-.55.78-.08,1.46.29.48.78,1.2.93,1.54.16.35-.08.69-.26,1.2-.15.41-.31.63-.8.73-2.16.56-2.56.1-2.35,2.66.08.47.3.55.75.67.46.11,1.35.3,1.8.43.52.09.93,1.32.91,1.73-.11.44-.7,1.2-.96,1.69-.5.75-.41.98.24,1.6.91,1,1.17,1.14,2.32.31,1.06-.68,1.28-.96,2.37-.4.49.15.69.48.77,1.01.52,2.21.22,2.26,2.72,2.13l.11-.03Z"/>
  </g>
  <g id="Layer_3" data-name="Layer 3">
    <path d="M10.9,8.05c-.3-.3-.4-.6-.4-1s.1-.7.4-1c.3-.3.7-.4,1.1-.4s.8.1,1.1.4.4.6.4,1-.1.7-.4,1c-.3.3-.7.4-1.1.4s-.8-.1-1.1-.4Z"/>
    <rect x="10.5" y="9.51" width="3" height="7.98" rx=".5" ry=".5"/>
  </g>
</svg>