<?xml version="1.0" encoding="UTF-8"?>
<svg xmlns="http://www.w3.org/2000/svg" version="1.1" viewBox="0 0 24 24">
  <!-- Generator: Adobe Illustrator 28.7.2, SVG Export Plug-In . SVG Version: 1.2.0 Build 154)  -->
  <g>
    <g id="Layer_1">
      <path d="M10.8,8.2c-.3-.3-.4-.6-.4-1s.1-.7.4-1c.3-.3.7-.4,1.1-.4s.8.1,1.1.4c.3.3.4.6.4,1s-.1.7-.4,1c-.3.3-.7.4-1.1.4s-.8-.1-1.1-.4ZM10.4,9.6h3v8.1h-3v-8.1Z"/>
      <path d="M9.8,22.4c-.3-.2-.4-.5-.5-.9l-.5-2.1-.5-.2-1.8,1.1c-.3.2-.7.3-1,.2-.3,0-.6-.2-.9-.5l-1.5-1.5c-.3-.3-.4-.6-.5-.9,0-.3,0-.7.2-1l1.1-1.8-.2-.5-2.1-.5c-.4,0-.7-.3-.9-.5-.2-.3-.3-.6-.3-1v-2.1c0-.4.1-.7.3-1,.2-.3.5-.4.9-.5l2.1-.5.2-.5-1.1-1.8c-.2-.3-.3-.6-.3-1,0-.3.2-.6.5-.9l1.5-1.5c.3-.3.6-.4.9-.5.3,0,.7,0,1,.2l1.8,1.1.5-.2.5-2.1c0-.4.3-.7.5-.9.3-.2.6-.3,1-.3h2.2c.4,0,.7.1,1,.3.3.2.4.5.5.9l.5,2.1.5.2,1.8-1.1c.3-.2.6-.3,1-.2s.6.2.9.5l1.5,1.5c.3.3.4.6.5.9,0,.3,0,.7-.2,1l-1.1,1.8.2.5,2.1.5c.4,0,.7.3.9.5.2.3.3.6.3,1v2.1c0,.4-.1.7-.3,1-.2.3-.5.4-.9.5l-2.1.5-.2.5,1.2,1.8c.2.3.3.7.2,1,0,.3-.2.6-.5.9l-1.5,1.5c-.3.3-.6.4-.9.5s-.7,0-1-.2l-1.8-1.1-.5.2-.5,2.1c0,.4-.3.7-.5.9-.3.2-.6.3-1,.3h-2.2c-.4,0-.7-.1-1-.3ZM12.8,21.5c.3,0,.4-.1.4-.4l.6-2.6,1.6-.6,2.3,1.4c.2.1.4.1.6,0l1.3-1.3c.2-.2.2-.4,0-.6l-1.4-2.3.6-1.6,2.6-.6c.2,0,.4-.2.4-.5v-1.9c0-.2-.1-.4-.4-.5l-2.6-.6-.6-1.6,1.4-2.3c.1-.2.1-.4,0-.6l-1.3-1.3c-.2-.2-.4-.2-.6,0l-2.3,1.4-1.6-.6-.6-2.6c0-.2-.2-.4-.4-.4h-1.9c-.3,0-.4.1-.5.4l-.6,2.6-1.6.6-2.3-1.4c-.2-.1-.4-.1-.6,0l-1.3,1.3c-.2.2-.2.4,0,.6l1.4,2.3-.6,1.6-2.6.6c-.2,0-.4.2-.4.5v1.9c0,.3.1.4.4.5l2.6.6c0,.3.5,1.4.6,1.6l-1.4,2.3c-.1.2-.1.4,0,.6l1.3,1.3c.2.2.4.2.6,0l2.3-1.4,1.6.6.6,2.6c0,.2.2.4.5.4h1.9Z"/>
    </g>
  </g>
</svg>