<svg
  xmlns="http://www.w3.org/2000/svg"
  viewBox="0 0 100 100"
>
  <!-- Outer circle -->
  <circle
    cx="50"
    cy="50"
    r="46"
    fill="none"
    stroke="black"
    stroke-width="4"
  />

  <!-- Left curly bracket -->
  <path
    d="
      M 32 32
      C 28 32 28 36 28 38
      C 28 40 26 42 24 42
      C 26 42 28 44 28 46
      C 28 48 28 52 32 52

      M 32 52
      C 28 52 28 56 28 58
      C 28 60 26 62 24 62
      C 26 62 28 64 28 66
      C 28 68 28 72 32 72
    "
    fill="none"
    stroke="black"
    stroke-width="3"
    stroke-linecap="round"
    stroke-linejoin="round"
  />

  <!-- Right curly bracket (mirrored) -->
  <path
    d="
      M 68 32
      C 72 32 72 36 72 38
      C 72 40 74 42 76 42
      C 74 42 72 44 72 46
      C 72 48 72 52 68 52

      M 68 52
      C 72 52 72 56 72 58
      C 72 60 74 62 76 62
      C 74 62 72 64 72 66
      C 72 68 72 72 68 72
    "
    fill="none"
    stroke="black"
    stroke-width="3"
    stroke-linecap="round"
    stroke-linejoin="round"
  />

  <!-- 3x3 matrix grid -->
  <g
    stroke="black"
    stroke-width="2.5"
    fill="none"
  >
    <!-- row 1 -->
    <rect x="40" y="40" width="5" height="5" rx="1" />
    <rect x="47" y="40" width="5" height="5" rx="1" />
    <rect x="54" y="40" width="5" height="5" rx="1" />

    <!-- row 2 -->
    <rect x="40" y="47" width="5" height="5" rx="1" />
    <rect x="47" y="47" width="5" height="5" rx="1" />
    <rect x="54" y="47" width="5" height="5" rx="1" />

    <!-- row 3 -->
    <rect x="40" y="54" width="5" height="5" rx="1" />
    <rect x="47" y="54" width="5" height="5" rx="1" />
    <rect x="54" y="54" width="5" height="5" rx="1" />
  </g>
</svg>