<?xml version="1.0" encoding="UTF-8"?>
<svg xmlns="http://www.w3.org/2000/svg" viewBox="0 0 24 24">
  <g id="Layer_5" data-name="Layer 5">
    <path d="M12.46,3c5.24,0,9.5,4.26,9.5,9.5s-4.26,9.5-9.5,9.5S2.96,17.74,2.96,12.5,7.22,3,12.46,3M12.46,1.5C6.38,1.5,1.46,6.42,1.46,12.5s4.92,11,11,11,11-4.92,11-11S18.53,1.5,12.46,1.5h0Z"/>
  </g>
  <g id="Layer_4" data-name="Layer 4">
    <path d="M2.5,11.49h1.19c2.36,0,2.64-4,6.47-4,.76,0,.6,0,.6,0v2h-.51c-3.14,0-3.07,4-6.55,4h-1.2v-2Z"/>
    <path d="M2.5,13.49h1.19c2.36,0,2.64,4,6.47,4,.76,0,.6,0,.6,0v-2h-.51c-3.14,0-3.07-4-6.55-4h-1.2v2Z"/>
    <path d="M10.5,7.49s-.35,0,.19,0c2.36,0,1.64-2.5,5.47-2.5h2.6l2,2h-4.51c-3.14,0-2.07,2.5-5.55,2.5-.46,0-.2,0-.2,0v-2Z"/>
    <path d="M10.5,9.49s-.35,0,.19,0c2.36,0,1.64,2.49,5.47,2.49h6.6v-2h-6.51c-3.14,0-2.07-2.49-5.55-2.49-.46,0-.2,0-.2,0v2Z"/>
    <path d="M10.5,15.49s-.35,0,.19,0c2.36,0,1.64-2.51,5.47-2.51h6.6v2h-6.51c-3.14,0-2.07,2.51-5.55,2.51-.46,0-.2,0-.2,0v-2Z"/>
    <path d="M10.5,17.49s-.35,0,.19,0c2.36,0,1.64,2.51,5.47,2.51h2.6l2-2h-4.51c-3.14,0-2.07-2.51-5.55-2.51-.46,0-.2,0-.2,0v2Z"/>
  </g>
</svg>