<?xml version="1.0" encoding="UTF-8"?>
<svg xmlns="http://www.w3.org/2000/svg" viewBox="0 0 12 15">
  <defs>
    <style>
      .cls-1 {
        fill: none;
        stroke: currentColor;
        stroke-miterlimit: 10;
      }

      .cls-2 {
        fill: currentColor;
      }
    </style>
  </defs>
  <g id="Layer_1">
    <path class="cls-2" d="M5.26,11.55c-.1-.07-.16-.18-.19-.32l-.17-.74-.19-.07-.65.4c-.12.07-.24.1-.36.09s-.23-.07-.33-.17l-.54-.54c-.1-.1-.16-.21-.17-.33s.02-.24.09-.36l.41-.65-.07-.18-.74-.18c-.13-.03-.24-.09-.32-.19s-.11-.21-.11-.35v-.77c0-.14.04-.25.11-.35s.18-.16.32-.19l.74-.17.07-.19-.41-.65c-.07-.11-.11-.23-.09-.35s.07-.23.17-.33l.54-.55c.1-.09.21-.15.33-.16s.24.01.35.09l.65.41.19-.07.17-.75c.03-.13.09-.24.19-.32s.21-.11.35-.11h.78c.14,0,.25.04.35.11s.16.18.19.32l.17.75.19.07.65-.41c.11-.07.23-.1.35-.09s.23.07.33.16l.55.55c.1.1.15.21.17.33s-.01.24-.09.35l-.41.65.07.19.74.17c.13.03.24.1.32.19s.11.21.11.35v.77c0,.13-.04.25-.11.35s-.18.16-.32.19l-.74.18-.07.18.41.65c.07.12.1.24.09.36s-.07.23-.17.33l-.55.54c-.1.1-.2.15-.33.17s-.24-.01-.36-.09l-.65-.4-.19.07-.17.74c-.03.14-.09.24-.19.32s-.21.11-.35.11h-.78c-.14,0-.25-.04-.35-.11ZM6.34,11.2c.09,0,.14-.04.16-.13l.23-.94c.11-.03.21-.06.31-.1s.19-.08.26-.13l.82.51c.07.05.14.04.21-.03l.47-.47c.06-.06.07-.13.02-.21l-.51-.82c.04-.08.08-.17.12-.27s.07-.2.1-.3l.95-.22c.09-.02.13-.07.13-.16v-.67c0-.09-.04-.14-.13-.16l-.94-.22c-.03-.11-.06-.22-.11-.32s-.08-.18-.12-.26l.51-.82c.05-.08.04-.15-.02-.21l-.47-.47c-.07-.06-.14-.07-.22-.03l-.82.51c-.08-.04-.16-.08-.26-.12s-.2-.08-.31-.11l-.23-.95c-.02-.09-.07-.13-.16-.13h-.68c-.09,0-.14.04-.16.13l-.22.94c-.1.03-.21.06-.31.1s-.19.08-.27.12l-.82-.5c-.07-.05-.15-.04-.21.03l-.48.47c-.06.06-.07.13-.02.21l.51.82c-.03.07-.07.16-.11.26s-.08.2-.11.32l-.94.22c-.09.02-.13.07-.13.16v.67c0,.09.04.14.13.16l.95.22c.03.11.06.21.1.3s.08.19.12.27l-.51.82c-.05.08-.04.15.02.21l.47.47c.07.07.14.08.21.03l.82-.51c.08.04.17.09.27.13s.2.07.31.1l.22.94c.02.09.07.13.16.13h.68Z"/>
  </g>
  <g id="Layer_3">
    <rect class="cls-2" x="5.46" y="7.01" width="1.07" height="2.68" rx=".34" ry=".34"/>
    <circle class="cls-2" cx="6" cy="6.04" r=".65"/>
  </g>
  <g id="Layer_2">
    <rect class="cls-1" x=".5" y=".5" width="11" height="14" rx="1" ry="1"/>
  </g>
</svg>