<?xml version="1.0" encoding="UTF-8"?>
<svg xmlns="http://www.w3.org/2000/svg" viewBox="0 0 12.33 12.33">
  <g id="Layer_2">
    <path class="cls-1" d="M5.05,12.16c-.14-.11-.24-.27-.29-.48l-.26-1.12-.28-.1-.98.61c-.18.11-.36.16-.54.13s-.35-.11-.5-.25l-.82-.82c-.15-.15-.24-.31-.26-.5s.03-.36.13-.54l.62-.98-.1-.27-1.12-.27c-.2-.05-.36-.14-.48-.29s-.17-.32-.17-.52v-1.17c0-.21.06-.38.17-.52s.27-.24.48-.29l1.12-.26.11-.29-.62-.98c-.11-.17-.16-.35-.14-.53s.11-.35.25-.5l.82-.83c.15-.14.31-.22.5-.25s.36.02.54.13l.98.62.29-.11.26-1.13c.05-.2.14-.36.29-.48s.32-.17.53-.17h1.18c.21,0,.38.06.52.17s.24.27.28.48l.26,1.13.29.11.98-.62c.17-.11.35-.15.53-.13s.35.11.49.25l.83.83c.14.15.23.31.25.5s-.02.36-.13.53l-.62.98.11.29,1.12.26c.2.05.36.15.48.29s.17.32.17.52v1.17c0,.2-.06.38-.17.52s-.27.24-.48.29l-1.12.27-.11.27.62.98c.11.18.15.36.13.54s-.11.35-.25.5l-.83.82c-.14.14-.31.23-.49.25s-.36-.02-.54-.13l-.98-.61-.28.1-.26,1.12c-.05.21-.14.37-.28.48s-.32.17-.52.17h-1.18c-.21,0-.38-.06-.53-.17ZM6.69,11.63c.14,0,.22-.07.24-.2l.34-1.42c.16-.04.31-.09.46-.16s.28-.12.4-.19l1.24.77c.11.07.22.06.32-.04l.71-.71c.09-.09.1-.2.03-.32l-.77-1.24c.06-.12.12-.25.18-.4s.11-.3.16-.46l1.43-.33c.13-.03.2-.11.2-.25v-1.02c0-.13-.07-.21-.2-.25l-1.42-.33c-.04-.17-.1-.33-.16-.48s-.12-.28-.18-.39l.77-1.24c.07-.12.06-.23-.03-.32l-.71-.71c-.1-.1-.21-.11-.33-.04l-1.24.77c-.12-.06-.25-.12-.4-.18s-.3-.11-.47-.16l-.34-1.43c-.02-.13-.1-.2-.24-.2h-1.03c-.14,0-.22.07-.25.2l-.33,1.42c-.16.04-.31.1-.47.16s-.29.12-.41.19l-1.24-.76c-.11-.07-.22-.06-.32.04l-.72.71c-.09.09-.1.2-.03.32l.77,1.24c-.05.11-.1.24-.17.39s-.12.31-.16.48l-1.42.33c-.13.03-.19.11-.19.25v1.02c0,.14.06.22.19.25l1.43.33c.04.16.1.31.16.46s.12.28.18.4l-.77,1.24c-.07.12-.06.22.04.32l.71.71c.11.1.21.12.32.04l1.24-.77c.12.07.26.13.4.19s.3.11.47.16l.33,1.42c.03.13.11.2.25.2h1.03Z"/>
  </g>
  <g id="Layer_3">
    <rect class="cls-1" x="5.41" y="5.36" width="1.5" height="3.75" rx=".34" ry=".34"/>
    <circle class="cls-1" cx="6.12" cy="4" r=".92"/>
  </g>
</svg>