<?xml version="1.0" encoding="UTF-8"?>
<svg xmlns="http://www.w3.org/2000/svg" viewBox="0 0 16 16">
  <defs>
    <style>
      .cls-1 {
        fill: #231f20;
      }
    </style>
  </defs>
  <g id="Layer_5" data-name="Layer 5">
    <rect class="cls-1" x="7.07" y="2.57" width="7.02" height="1" rx=".5" ry=".5"/>
    <rect class="cls-1" x="7.07" y="7.57" width="7.02" height="1" rx=".5" ry=".5"/>
    <rect class="cls-1" x="7.07" y="12.57" width="7.02" height="1" rx=".5" ry=".5"/>
  </g>
  <g id="Layer_4" data-name="Layer 4">
    <path class="cls-1" d="M3.54,4.87c-.09,0-.17-.02-.24-.06-.07-.04-.14-.1-.21-.19l-1.05-1.34c-.08-.11-.12-.22-.12-.33,0-.12.04-.22.12-.3.08-.08.18-.13.29-.13.08,0,.14.02.21.05.06.03.13.09.19.17l.8,1.1,1.23-2.58c.1-.16.22-.24.38-.24.11,0,.21.04.3.11.09.07.13.17.13.28,0,.06-.01.12-.04.18-.03.06-.06.11-.09.16l-1.46,2.87c-.11.17-.25.25-.43.25Z"/>
    <path class="cls-1" d="M3.54,9.87c-.09,0-.17-.02-.24-.06-.07-.04-.14-.1-.21-.19l-1.05-1.34c-.08-.11-.12-.22-.12-.33,0-.12.04-.22.12-.3.08-.08.18-.13.29-.13.08,0,.14.02.21.05.06.03.13.09.19.17l.8,1.1,1.23-2.58c.1-.16.22-.24.38-.24.11,0,.21.04.3.11.09.07.13.17.13.28,0,.06-.01.12-.04.18-.03.06-.06.11-.09.16l-1.46,2.87c-.11.17-.25.25-.43.25Z"/>
    <path class="cls-1" d="M3.54,14.87c-.09,0-.17-.02-.24-.06-.07-.04-.14-.1-.21-.19l-1.05-1.34c-.08-.11-.12-.22-.12-.33,0-.12.04-.22.12-.3.08-.08.18-.13.29-.13.08,0,.14.02.21.05.06.03.13.09.19.17l.8,1.1,1.23-2.58c.1-.16.22-.24.38-.24.11,0,.21.04.3.11.09.07.13.17.13.28,0,.06-.01.12-.04.18-.03.06-.06.11-.09.16l-1.46,2.87c-.11.17-.25.25-.43.25Z"/>
  </g>
</svg>