<svg width="286" height="48" viewBox="0 0 286 48" fill="none" xmlns="http://www.w3.org/2000/svg">
<g clip-path="url(#clip0_2410_15134)">
<path d="M53.7019 0.230469H47.7339V47.6157H53.7019V0.230469Z" fill="#F90D29"/>
<path d="M107.312 0.230469H101.344V47.6157H107.312V0.230469Z" fill="#F90D29"/>
<path d="M41.1464 47.6166H34.7945L20.5745 8.54227L6.3519 47.6166H0L17.2471 0.232422H23.8998L41.1464 47.6166Z" fill="#F90D29"/>
<path d="M80.1392 47.5123H61.9365V41.5443H80.1392C84.2049 41.5443 87.5129 38.2364 87.5129 34.1706C87.5129 30.1048 84.2049 26.7942 80.1392 26.7942H75.1588C67.8024 26.7942 61.8176 20.8094 61.8176 13.4525C61.8176 6.09562 67.8019 0.111328 75.1588 0.111328H93.4809V6.07931H75.1588C71.093 6.07931 67.7851 9.38726 67.7851 13.453C67.7851 17.5188 71.093 20.8268 75.1588 20.8268H80.1392C87.4955 20.8268 93.4803 26.8116 93.4803 34.168C93.4803 41.5244 87.4955 47.5123 80.1392 47.5123Z" fill="#F90D29"/>
<path d="M123.979 0.240234H122.743V47.6028H123.979V0.240234Z" fill="#101828"/>
<path d="M144.816 19.6826L142.4 13.5106H134.622L132.232 19.6826H129.949L137.621 0.197266H139.519L147.152 19.6831H144.816V19.6826ZM141.696 11.4795L139.439 5.46632C139.148 4.70533 138.846 3.77185 138.537 2.66534C138.342 3.51468 138.064 4.44869 137.701 5.46632L135.418 11.4795H141.696Z" fill="#101828"/>
<path d="M149.956 19.6833V0.277344H152.213V19.6833H149.956Z" fill="#101828"/>
<path d="M175.819 14.5199C175.819 16.228 175.2 17.5596 173.961 18.5152C172.722 19.4708 171.041 19.9488 168.917 19.9488C166.616 19.9488 164.846 19.6522 163.607 19.0595V16.8828C164.404 17.2194 165.271 17.4844 166.209 17.679C167.147 17.8736 168.076 17.9709 168.996 17.9709C170.5 17.9709 171.633 17.6853 172.394 17.1147C173.155 16.5441 173.536 15.75 173.536 14.7318C173.536 14.0592 173.401 13.5086 173.131 13.0794C172.861 12.6503 172.41 12.2543 171.777 11.8914C171.145 11.5285 170.182 11.1173 168.89 10.6571C167.085 10.0113 165.795 9.24558 165.021 8.36101C164.246 7.47643 163.86 6.32154 163.86 4.89634C163.86 3.40119 164.422 2.21053 165.545 1.32543C166.669 0.44086 168.156 -0.00195312 170.006 -0.00195312C171.855 -0.00195312 173.709 0.351982 175.328 1.05985L174.625 3.02411C173.023 2.35148 171.466 2.01542 169.952 2.01542C168.758 2.01542 167.824 2.27207 167.152 2.78535C166.479 3.29864 166.143 4.01124 166.143 4.92263C166.143 5.59527 166.266 6.14589 166.515 6.57503C166.762 7.00417 167.18 7.39807 167.769 7.75622C168.357 8.11436 169.258 8.51089 170.47 8.94424C172.505 9.66999 173.906 10.4489 174.671 11.2803C175.436 12.1123 175.819 13.192 175.819 14.5188L175.819 14.5199Z" fill="#101828"/>
<path d="M190.742 19.6833H179.924V0.277344H190.742V2.28157H182.18V8.53355H190.224V10.5246H182.18V17.6659H190.742V19.6833Z" fill="#101828"/>
<path d="M203.488 2.01685C201.355 2.01685 199.672 2.72682 198.437 4.1473C197.203 5.56777 196.585 7.51205 196.585 9.98118C196.585 12.4503 197.18 14.4835 198.371 15.8682C199.561 17.2534 201.258 17.9455 203.461 17.9455C204.815 17.9455 206.359 17.702 208.094 17.2155V19.1935C206.749 19.6978 205.089 19.9503 203.116 19.9503C200.258 19.9503 198.052 19.083 196.499 17.3486C194.946 15.6142 194.17 13.1498 194.17 9.95541C194.17 7.95591 194.544 6.20359 195.292 4.69897C196.04 3.19488 197.119 2.03526 198.53 1.22115C199.942 0.407052 201.603 0 203.514 0C205.549 0 207.328 0.371816 208.85 1.11492L207.894 3.05289C206.426 2.3629 204.956 2.01738 203.487 2.01738L203.488 2.01685Z" fill="#101828"/>
<path d="M227.119 0.277344V12.8344C227.119 15.0469 226.45 16.7855 225.114 18.0509C223.778 19.3162 221.942 19.9489 219.605 19.9489C217.269 19.9489 215.462 19.312 214.183 18.0372C212.904 16.7629 212.265 15.0106 212.265 12.7808V0.277344H214.522V12.9406C214.522 14.5599 214.964 15.8032 215.849 16.6704C216.734 17.5376 218.035 17.9709 219.752 17.9709C221.468 17.9709 222.65 17.535 223.535 16.6635C224.419 15.7921 224.862 14.542 224.862 12.9138V0.277344H227.119Z" fill="#101828"/>
<path d="M234.648 11.6133V19.6838H232.391V0.277344H237.714C240.094 0.277344 241.853 0.733305 242.99 1.6447C244.127 2.5561 244.696 3.92766 244.696 5.75939C244.696 8.32581 243.395 10.0603 240.794 10.9627L246.063 19.6833H243.395L238.696 11.6127H234.648V11.6133ZM234.648 9.67529H237.741C239.334 9.67529 240.502 9.35922 241.245 8.72603C241.988 8.09336 242.36 7.14463 242.36 5.87877C242.36 4.61292 241.982 3.67102 241.225 3.10462C240.468 2.53822 239.254 2.25528 237.582 2.25528H234.648V9.67529Z" fill="#101828"/>
<path d="M249.332 19.6833V0.277344H251.588V19.6833H249.332Z" fill="#101828"/>
<path d="M263.02 19.6833H260.763V2.28157H254.618V0.277344H269.166V2.28157H263.02V19.6833Z" fill="#101828"/>
<path d="M278.03 9.98032L283.206 0.277344H285.648L279.171 12.157V19.6833H276.888V12.2633L270.423 0.277344H272.892L278.03 9.98032Z" fill="#101828"/>
<path d="M132.617 47.7321V28.3262H134.874V47.7321H132.617Z" fill="#101828"/>
<path d="M156.034 47.7321H153.46L142.854 31.4453H142.747C142.889 33.3565 142.96 35.1088 142.96 36.7018V47.7321H140.876V28.3262H143.424L154.003 44.5467H154.11C154.092 44.3079 154.052 43.5401 153.99 42.2438C153.928 40.9474 153.906 40.0202 153.924 39.4628V28.3262H156.034V47.7321Z" fill="#101828"/>
<path d="M173.001 42.5696C173.001 44.2778 172.382 45.6094 171.143 46.5649C169.904 47.5205 168.222 47.9986 166.099 47.9986C163.798 47.9986 162.028 47.7019 160.789 47.1093V44.9325C161.585 45.2691 162.453 45.5342 163.391 45.7287C164.328 45.9233 165.258 46.0206 166.178 46.0206C167.682 46.0206 168.815 45.7351 169.576 45.1645C170.337 44.5938 170.718 43.7997 170.718 42.7821C170.718 42.1095 170.582 41.5588 170.313 41.1297C170.043 40.7006 169.591 40.3046 168.959 39.9417C168.326 39.5788 167.364 39.1675 166.072 38.7074C164.266 38.0616 162.977 37.2958 162.203 36.4113C161.428 35.5267 161.041 34.3718 161.041 32.9466C161.041 31.4514 161.603 30.2608 162.727 29.3762C163.851 28.4916 165.338 28.0488 167.187 28.0488C169.037 28.0488 170.891 28.4028 172.51 29.1106L171.806 31.0749C170.204 30.4023 168.647 30.0662 167.134 30.0662C165.939 30.0662 165.006 30.3228 164.333 30.8361C163.661 31.3494 163.324 32.062 163.324 32.9734C163.324 33.6461 163.448 34.1967 163.696 34.6258C163.944 35.055 164.362 35.4489 164.951 35.807C165.539 36.1651 166.439 36.5617 167.652 36.995C169.687 37.7208 171.087 38.4996 171.853 39.3311C172.618 40.1631 173.001 41.2422 173.001 42.5696H173.001Z" fill="#101828"/>
<path d="M183.622 47.7321H181.366V30.3304H175.22V28.3262H189.768V30.3304H183.622V47.7321Z" fill="#101828"/>
<path d="M193.368 47.7321V28.3262H195.625V47.7321H193.368Z" fill="#101828"/>
<path d="M207.6 47.7321H205.344V30.3304H199.198V28.3262H213.746V30.3304H207.6V47.7321Z" fill="#101828"/>
<path d="M232 28.3262V40.8832C232 43.0957 231.331 44.8344 229.996 46.0997C228.659 47.365 226.823 47.9977 224.487 47.9977C222.15 47.9977 220.343 47.3603 219.065 46.0866C217.786 44.8123 217.147 43.06 217.147 40.8301V28.3262H219.403V40.9895C219.403 42.6087 219.846 43.8525 220.731 44.7192C221.615 45.5864 222.916 46.0198 224.633 46.0198C226.35 46.0198 227.531 45.5838 228.416 44.7124C229.3 43.8409 229.743 42.5909 229.743 40.9627V28.3262H232Z" fill="#101828"/>
<path d="M243.79 47.7321H241.533V30.3304H235.387V28.3262H249.936V30.3304H243.79V47.7321Z" fill="#101828"/>
<path d="M264.353 47.7321H253.535V28.3262H264.353V30.3304H255.792V36.5824H263.835V38.5735H255.792V45.7147H264.353V47.7321Z" fill="#101828"/>
</g>
<defs>
<clipPath id="clip0_2410_15134">
<rect width="285.649" height="48" fill="white"/>
</clipPath>
</defs>
</svg>
